<svg xmlns="http://www.w3.org/2000/svg" viewBox="0 0 512 512"><defs><style>.cls-1{fill:#027bff;}</style></defs><title>lettereRisorsa 3ldpi</title><g id="Livello_2" data-name="Livello 2"><g id="text"><path class="cls-1" d="M194.21,388.41c17.65,0,35.31-8.82,35.31-37.31V309H158.9V351.1C158.9,379.59,176.55,388.41,194.21,388.41Z"/><path class="cls-1" d="M419.11,58.69V233.06H276.78V194.21H379.59V36.79C349.66,13.44,304.4,0,256,0,114.62,0,0,114.61,0,256S114.62,512,256,512,512,397.38,512,256A255.47,255.47,0,0,0,419.11,58.69ZM367.46,351.1c0,43.12-23.49,69.06-63.1,69.06-21,0-39.26-11.22-48-27.69-9.81,24.18-31.9,39.61-61.35,39.61-45.23,0-72.92-28.75-72.92-76.43V268.36h245.4Z"/><path class="cls-1" d="M300.14,379.59c13.86,0,26.48-12.59,26.48-30.25V309H267.55v40.37C267.55,373.18,282.48,379.59,300.14,379.59Z"/></g></g></svg>