<svg xmlns="http://www.w3.org/2000/svg" viewBox="0 0 512 512"><defs><style>.cls-1{fill:#027bff;}.cls-2{fill:#fff;}</style></defs><title>lettereRisorsa 1ldpi</title><g id="Livello_2" data-name="Livello 2"><g id="_Omino" data-name="+Omino"><g id="_Head" data-name="+Head"><circle id="BG" class="cls-1" cx="256" cy="256" r="256"/><g id="_Naso" data-name="+Naso"><polygon class="cls-2" points="380 26 380 194 277 194 277 233 419 233 419 59 419 26 380 26"/></g><g id="_Bocca" data-name="+Bocca"><path class="cls-2" d="M122,268v88c0,41,25,76,73,76s61-40,61-40,3,28,54.22,28S367,361.22,367,361.22V268Zm72,120c-37,0-35-37-35-37V309h71v42S231,388,194,388Zm104-10c-31,0-30-29-30-29V309h59v40S329,378,298,378Z"/></g></g></g></g></svg>