<?xml version="1.0" encoding="utf-8"?>
<!-- Generator: Adobe Illustrator 22.1.0, SVG Export Plug-In . SVG Version: 6.00 Build 0)  -->
<svg version="1.1" id="Layer_1" xmlns="http://www.w3.org/2000/svg" xmlns:xlink="http://www.w3.org/1999/xlink" x="0px" y="0px"
	 viewBox="0 0 26 26" style="enable-background:new 0 0 26 26;" xml:space="preserve">
<style type="text/css">
	.st0{fill:#8F9EA5;}
	.st1{fill:#FFFFFF;}
</style>
<path class="st0" d="M25.5,6.7c-0.3-1.1-1.2-2-2.3-2.3C21.1,3.9,13,3.9,13,3.9s-8.1,0-10.2,0.5c-1.1,0.3-2,1.2-2.3,2.3
	C0,8.8,0,13,0,13s0,4.2,0.5,6.3c0.3,1.1,1.2,2,2.3,2.3C4.9,22.1,13,22.1,13,22.1s8.1,0,10.2-0.5c1.1-0.3,2-1.2,2.3-2.3
	C26,17.2,26,13,26,13S26,8.8,25.5,6.7z"/>
<polygon class="st1" points="10.4,16.9 17.2,13 10.4,9.1 "/>
<image style="overflow:visible;" width="26" height="26" xlink:href="Youtube_Gray.png"  transform="matrix(1 0 0 1 45 -0.875)">
</image>
</svg>
